<svg width="24" height="24" viewBox="0 0 24 24" fill="none" xmlns="http://www.w3.org/2000/svg">
<path fill-rule="evenodd" clip-rule="evenodd" d="M8.68464 0H15.3154L16.4698 3.48007C16.6874 3.59556 16.9 3.71918 17.1073 3.85053L20.6846 3.11494L24 8.88506L21.5764 11.6314C21.581 11.7537 21.5833 11.8766 21.5833 12C21.5833 12.1234 21.581 12.2463 21.5764 12.3686L24 15.1149L20.6846 20.8851L17.1073 20.1495C16.9 20.2808 16.6874 20.4044 16.4698 20.5199L15.3154 24H8.68464L7.53019 20.5199C7.31257 20.4044 7.09995 20.2808 6.89275 20.1495L3.31536 20.8851L0 15.1149L2.4236 12.3686C2.419 12.2463 2.41669 12.1234 2.41669 12C2.41669 11.8766 2.419 11.7537 2.4236 11.6314L0 8.88506L3.31536 3.11494L6.89274 3.85053C7.09995 3.71918 7.31257 3.59556 7.53019 3.48007L8.68464 0ZM10.5974 2.66667L9.68823 5.40741L9.15812 5.64729C8.7306 5.84076 8.32578 6.07673 7.94905 6.35003L7.47687 6.69257L4.65726 6.11279L3.25468 8.55387L5.16309 10.7164L5.1053 11.2971C5.08233 11.5279 5.07053 11.7623 5.07053 12C5.07053 12.2377 5.08233 12.4721 5.1053 12.7029L5.16309 13.2836L3.25468 15.4461L4.65726 17.8872L7.47687 17.3074L7.94905 17.65C8.32578 17.9233 8.7306 18.1592 9.15812 18.3527L9.68823 18.5926L10.5974 21.3333H13.4026L14.3118 18.5926L14.8419 18.3527C15.2694 18.1592 15.6742 17.9233 16.051 17.65L16.5231 17.3074L19.3427 17.8872L20.7453 15.4461L18.8369 13.2836L18.8947 12.7029C18.9177 12.4721 18.9295 12.2377 18.9295 12C18.9295 11.7623 18.9177 11.5279 18.8947 11.2971L18.8369 10.7164L20.7453 8.55387L19.3427 6.11279L16.5231 6.69257L16.051 6.35003C15.6742 6.07673 15.2694 5.84076 14.8419 5.64729L14.3118 5.40741L13.4026 2.66667H10.5974Z" fill="#979797"/>
<path fill-rule="evenodd" clip-rule="evenodd" d="M12.0001 12.1483C12.0815 12.1483 12.1475 12.082 12.1475 12.0001C12.1475 11.9183 12.0815 11.852 12.0001 11.852C11.9186 11.852 11.8526 11.9183 11.8526 12.0001C11.8526 12.082 11.9186 12.1483 12.0001 12.1483ZM9.49365 12.0001C9.49365 10.6092 10.6158 9.48161 12.0001 9.48161C13.3843 9.48161 14.5065 10.6092 14.5065 12.0001C14.5065 13.3911 13.3843 14.5187 12.0001 14.5187C10.6158 14.5187 9.49365 13.3911 9.49365 12.0001Z" fill="#979797"/>
</svg>
